<svg xmlns="http://www.w3.org/2000/svg" viewBox="0 0 64 64">
  <defs>
    <linearGradient id="leaf" x1="0" y1="0" x2="1" y2="1">
      <stop offset="0%" stop-color="#65a30d"/>
      <stop offset="100%" stop-color="#4d7c0f"/>
    </linearGradient>
    <linearGradient id="fruit" x1="0" y1="0" x2="1" y2="1">
      <stop offset="0%" stop-color="#fde047"/>
      <stop offset="100%" stop-color="#eab308"/>
    </linearGradient>
  </defs>
  <rect width="64" height="64" rx="12" fill="#fffef4"/>
  <path d="M18 36c0 8 7 14 16 14 9 0 16-6 17-14-5 4-10 6-17 6-6 0-11-2-16-6z" fill="url(#fruit)"/>
  <path d="M24 17c8-3 15-1 18 7-6-1-12 0-18 3 1-4 1-7 0-10z" fill="url(#leaf)"/>
  <circle cx="46" cy="18" r="4" fill="#65a30d"/>
</svg>
